# xmcd
#
# Track frame offsets:
#	150
#	14299
#	31332
#	54256
#	77885
#	98299
#	142843
#	180792
#	205272
#	227549
#
# Disc length: 3303 seconds
#
# Revision: 1
# Processed by: cddbd v1.5.2PL0 Copyright (c) Steve Scherf et al.
# Submitted via: audiograbber 1.83.01
#
DISCID=650ce50a
DTITLE=Grateful Dead - 69-12-26 Mc Farlin Auditorium, SMU, Dallas TX
DYEAR=1900
DGENRE=
TTITLE0=Monkey and The Engineer
TTITLE1=Little Sadie
TTITLE2=Long Black Limousine
TTITLE3=All Around This World
TTITLE4=Gathering Flowers For The Master's Banquet
TTITLE5=Black Peter
TTITLE6=Uncle John's Band
TTITLE7=Casey Jones
TTITLE8=Hard To Handle
TTITLE9=Cold Rain and Snow
EXTD=
EXTT0=
EXTT1=
EXTT2=
EXTT3=
EXTT4=
EXTT5=
EXTT6=
EXTT7=
EXTT8=
EXTT9=
PLAYORDER=
